<mxfile host="app.diagrams.net" modified="2020-10-06T09:22:56.112Z" agent="5.0 (X11)" etag="YbEGi7rJKOuFHTDKOSF3" version="13.7.7" type="github">
  <diagram id="Jouf8wN471RFno2XZKNt" name="Page-1">
    <mxGraphModel dx="2035" dy="625" grid="1" gridSize="10" guides="1" tooltips="1" connect="1" arrows="1" fold="1" page="1" pageScale="1" pageWidth="850" pageHeight="1100" math="0" shadow="0">
      <root>
        <mxCell id="0" />
        <mxCell id="1" parent="0" />
        <mxCell id="a4DZ8j7uRJRlggTCPN5h-18" value="" style="endArrow=diamondThin;endFill=0;endSize=24;html=1;" edge="1" parent="1" source="a4DZ8j7uRJRlggTCPN5h-26" target="a4DZ8j7uRJRlggTCPN5h-12">
          <mxGeometry width="160" relative="1" as="geometry">
            <mxPoint x="240" y="430" as="sourcePoint" />
            <mxPoint x="400" y="430" as="targetPoint" />
            <Array as="points">
              <mxPoint x="240" y="380" />
            </Array>
          </mxGeometry>
        </mxCell>
        <mxCell id="a4DZ8j7uRJRlggTCPN5h-50" value="0..1" style="edgeLabel;html=1;align=center;verticalAlign=middle;resizable=0;points=[];" vertex="1" connectable="0" parent="a4DZ8j7uRJRlggTCPN5h-18">
          <mxGeometry x="0.752" relative="1" as="geometry">
            <mxPoint x="-24.490000000000002" y="2.9599999999999937" as="offset" />
          </mxGeometry>
        </mxCell>
        <mxCell id="a4DZ8j7uRJRlggTCPN5h-27" value="Extends" style="endArrow=block;endSize=16;endFill=0;html=1;" edge="1" parent="1" source="a4DZ8j7uRJRlggTCPN5h-19" target="a4DZ8j7uRJRlggTCPN5h-26">
          <mxGeometry width="160" relative="1" as="geometry">
            <mxPoint x="100" y="330" as="sourcePoint" />
            <mxPoint x="110" y="305.5" as="targetPoint" />
          </mxGeometry>
        </mxCell>
        <mxCell id="a4DZ8j7uRJRlggTCPN5h-28" value="Extends" style="endArrow=block;endSize=16;endFill=0;html=1;" edge="1" parent="1" source="a4DZ8j7uRJRlggTCPN5h-12" target="a4DZ8j7uRJRlggTCPN5h-26">
          <mxGeometry width="160" relative="1" as="geometry">
            <mxPoint x="112.26086956521738" y="440" as="sourcePoint" />
            <mxPoint x="127.73913043478262" y="262" as="targetPoint" />
            <Array as="points">
              <mxPoint x="290" y="360" />
            </Array>
          </mxGeometry>
        </mxCell>
        <mxCell id="a4DZ8j7uRJRlggTCPN5h-19" value="File" style="swimlane;fontStyle=1;childLayout=stackLayout;horizontal=1;startSize=26;fillColor=none;horizontalStack=0;resizeParent=1;resizeParentMax=0;resizeLast=0;collapsible=1;marginBottom=0;" vertex="1" parent="1">
          <mxGeometry x="-20" y="430" width="140" height="104" as="geometry" />
        </mxCell>
        <mxCell id="a4DZ8j7uRJRlggTCPN5h-24" value="+ content : String" style="text;strokeColor=none;fillColor=none;align=left;verticalAlign=top;spacingLeft=4;spacingRight=4;overflow=hidden;rotatable=0;points=[[0,0.5],[1,0.5]];portConstraint=eastwest;" vertex="1" parent="a4DZ8j7uRJRlggTCPN5h-19">
          <mxGeometry y="26" width="140" height="26" as="geometry" />
        </mxCell>
        <mxCell id="a4DZ8j7uRJRlggTCPN5h-41" value="+ cat() : void" style="text;strokeColor=none;fillColor=none;align=left;verticalAlign=top;spacingLeft=4;spacingRight=4;overflow=hidden;rotatable=0;points=[[0,0.5],[1,0.5]];portConstraint=eastwest;" vertex="1" parent="a4DZ8j7uRJRlggTCPN5h-19">
          <mxGeometry y="52" width="140" height="26" as="geometry" />
        </mxCell>
        <mxCell id="a4DZ8j7uRJRlggTCPN5h-44" value="+ nbElem() : int" style="text;strokeColor=none;fillColor=none;align=left;verticalAlign=top;spacingLeft=4;spacingRight=4;overflow=hidden;rotatable=0;points=[[0,0.5],[1,0.5]];portConstraint=eastwest;" vertex="1" parent="a4DZ8j7uRJRlggTCPN5h-19">
          <mxGeometry y="78" width="140" height="26" as="geometry" />
        </mxCell>
        <mxCell id="a4DZ8j7uRJRlggTCPN5h-12" value="Directory" style="swimlane;fontStyle=1;childLayout=stackLayout;horizontal=1;startSize=26;fillColor=none;horizontalStack=0;resizeParent=1;resizeParentMax=0;resizeLast=0;collapsible=1;marginBottom=0;" vertex="1" parent="1">
          <mxGeometry x="170" y="430" width="230" height="130" as="geometry" />
        </mxCell>
        <mxCell id="a4DZ8j7uRJRlggTCPN5h-42" value="+ ls() : void" style="text;strokeColor=none;fillColor=none;align=left;verticalAlign=top;spacingLeft=4;spacingRight=4;overflow=hidden;rotatable=0;points=[[0,0.5],[1,0.5]];portConstraint=eastwest;" vertex="1" parent="a4DZ8j7uRJRlggTCPN5h-12">
          <mxGeometry y="26" width="230" height="26" as="geometry" />
        </mxCell>
        <mxCell id="a4DZ8j7uRJRlggTCPN5h-43" value="+ nbElem() : int" style="text;strokeColor=none;fillColor=none;align=left;verticalAlign=top;spacingLeft=4;spacingRight=4;overflow=hidden;rotatable=0;points=[[0,0.5],[1,0.5]];portConstraint=eastwest;" vertex="1" parent="a4DZ8j7uRJRlggTCPN5h-12">
          <mxGeometry y="52" width="230" height="26" as="geometry" />
        </mxCell>
        <mxCell id="a4DZ8j7uRJRlggTCPN5h-45" value="+ find(name : String) : Collection" style="text;strokeColor=none;fillColor=none;align=left;verticalAlign=top;spacingLeft=4;spacingRight=4;overflow=hidden;rotatable=0;points=[[0,0.5],[1,0.5]];portConstraint=eastwest;" vertex="1" parent="a4DZ8j7uRJRlggTCPN5h-12">
          <mxGeometry y="78" width="230" height="26" as="geometry" />
        </mxCell>
        <mxCell id="a4DZ8j7uRJRlggTCPN5h-47" value="+ findR(name : String) : Collection" style="text;strokeColor=none;fillColor=none;align=left;verticalAlign=top;spacingLeft=4;spacingRight=4;overflow=hidden;rotatable=0;points=[[0,0.5],[1,0.5]];portConstraint=eastwest;" vertex="1" parent="a4DZ8j7uRJRlggTCPN5h-12">
          <mxGeometry y="104" width="230" height="26" as="geometry" />
        </mxCell>
        <mxCell id="a4DZ8j7uRJRlggTCPN5h-29" value="Extends" style="endArrow=block;endSize=16;endFill=0;html=1;exitX=0.194;exitY=0.026;exitDx=0;exitDy=0;exitPerimeter=0;" edge="1" parent="1" source="a4DZ8j7uRJRlggTCPN5h-21" target="a4DZ8j7uRJRlggTCPN5h-26">
          <mxGeometry width="160" relative="1" as="geometry">
            <mxPoint x="250" y="440" as="sourcePoint" />
            <mxPoint x="250" y="342" as="targetPoint" />
          </mxGeometry>
        </mxCell>
        <mxCell id="a4DZ8j7uRJRlggTCPN5h-26" value="&lt;&lt;Abstract&gt;&gt;&#xa;StockageElement" style="swimlane;fontStyle=1;childLayout=stackLayout;horizontal=1;startSize=26;fillColor=none;horizontalStack=0;resizeParent=1;resizeParentMax=0;resizeLast=0;collapsible=1;marginBottom=0;" vertex="1" parent="1">
          <mxGeometry x="160" y="220" width="170" height="104" as="geometry" />
        </mxCell>
        <mxCell id="a4DZ8j7uRJRlggTCPN5h-37" value="+ size() : int" style="text;strokeColor=none;fillColor=none;align=left;verticalAlign=top;spacingLeft=4;spacingRight=4;overflow=hidden;rotatable=0;points=[[0,0.5],[1,0.5]];portConstraint=eastwest;" vertex="1" parent="a4DZ8j7uRJRlggTCPN5h-26">
          <mxGeometry y="26" width="170" height="26" as="geometry" />
        </mxCell>
        <mxCell id="a4DZ8j7uRJRlggTCPN5h-30" value="+ basicSize : int" style="text;strokeColor=none;fillColor=none;align=left;verticalAlign=top;spacingLeft=4;spacingRight=4;overflow=hidden;rotatable=0;points=[[0,0.5],[1,0.5]];portConstraint=eastwest;" vertex="1" parent="a4DZ8j7uRJRlggTCPN5h-26">
          <mxGeometry y="52" width="170" height="26" as="geometry" />
        </mxCell>
        <mxCell id="a4DZ8j7uRJRlggTCPN5h-38" value="+ absoluteAddress() : String" style="text;strokeColor=none;fillColor=none;align=left;verticalAlign=top;spacingLeft=4;spacingRight=4;overflow=hidden;rotatable=0;points=[[0,0.5],[1,0.5]];portConstraint=eastwest;" vertex="1" parent="a4DZ8j7uRJRlggTCPN5h-26">
          <mxGeometry y="78" width="170" height="26" as="geometry" />
        </mxCell>
        <mxCell id="a4DZ8j7uRJRlggTCPN5h-21" value="SymbolicLink" style="swimlane;fontStyle=1;childLayout=stackLayout;horizontal=1;startSize=26;fillColor=none;horizontalStack=0;resizeParent=1;resizeParentMax=0;resizeLast=0;collapsible=1;marginBottom=0;" vertex="1" parent="1">
          <mxGeometry x="470" y="430" width="140" height="52" as="geometry" />
        </mxCell>
        <mxCell id="a4DZ8j7uRJRlggTCPN5h-48" value="+ cat() : void" style="text;strokeColor=none;fillColor=none;align=left;verticalAlign=top;spacingLeft=4;spacingRight=4;overflow=hidden;rotatable=0;points=[[0,0.5],[1,0.5]];portConstraint=eastwest;" vertex="1" parent="a4DZ8j7uRJRlggTCPN5h-21">
          <mxGeometry y="26" width="140" height="26" as="geometry" />
        </mxCell>
      </root>
    </mxGraphModel>
  </diagram>
</mxfile>
